<?xml version='1.0' encoding='UTF-8'?>
<!DOCTYPE svg PUBLIC "-//W3C//DTD SVG 1.1//EN" "http://www.w3.org/Graphics/SVG/1.1/DTD/svg11.dtd">
<!-- Created with matplotlib (http://matplotlib.org/) -->
<svg xmlns="http://www.w3.org/2000/svg" xmlns:xlink="http://www.w3.org/1999/xlink" height="400px" version="1.1" viewBox="0 0 600 400" width="600px">
  <title>mplwp_hyperbolic functions.svg</title>
  <desc>http://commons.wikimedia.org/wiki/File:mplwp_hyperbolic functions.svg
Plot created with mplwp, the Matplotlib extension for Wikipedia plots.</desc>
  <defs>
    <style type="text/css">
*{stroke-linecap:butt;stroke-linejoin:round;}
  </style>
  </defs>
  <defs>
    <clipPath id="pa82c4e93f3">
      <rect height="355.0" width="515.0" x="42.5" y="18.5"/>
    </clipPath>
  </defs>
  <g id="figure_1">
    <g id="patch_1">
      <path d="
M 0 400
L 600 400
L 600 0
L 0 0
z 
" style="fill:#ffffff;"/>
    </g>
    <g id="axes_1">
      <g id="patch_2">
        <path d="
M 42.5 373.5
L 557.5 373.5
L 557.5 18.5
L 42.5 18.5
z 
" style="fill:#ffffff;"/>
      </g>
      <g id="line2d_1">
        <path clip-path="url(#pa82c4e93f3)" d="
M 42.5 197.626
L 64.851 198.302
L 83.803 199.091
L 100.283 199.997
L 114.806 201.014
L 127.681 202.134
L 139.32 203.364
L 149.929 204.707
L 159.611 206.154
L 168.469 207.7
L 176.606 209.342
L 184.125 211.082
L 191.129 212.932
L 197.618 214.875
L 203.592 216.896
L 209.154 219.01
L 214.304 221.203
L 219.145 223.506
L 223.677 225.911
L 227.9 228.407
L 231.814 230.978
L 235.522 233.68
L 239.024 236.513
L 242.32 239.471
L 245.41 242.546
L 248.294 245.726
L 251.075 249.124
L 253.753 252.759
L 256.225 256.487
L 258.594 260.454
L 260.86 264.675
L 263.023 269.164
L 265.083 273.934
L 267.143 279.278
L 269.1 284.991
L 270.954 291.089
L 272.705 297.587
L 274.456 304.951
L 276.104 312.843
L 277.752 321.879
L 279.297 331.632
L 280.739 342.122
L 282.181 354.285
L 283.52 367.461
L 284.859 382.941
L 286.095 399.851
L 286.172 401
M 314.381 -1
L 315.656 15.3233
L 316.995 29.8496
L 318.437 43.1574
L 319.982 55.3094
L 321.527 65.7409
L 323.175 75.3589
L 324.823 83.7227
L 326.574 91.4958
L 328.428 98.7063
L 330.282 105.057
L 332.239 110.99
L 334.299 116.527
L 336.462 121.692
L 338.728 126.507
L 340.994 130.812
L 343.363 134.853
L 345.835 138.646
L 348.513 142.341
L 351.294 145.792
L 354.178 149.019
L 357.268 152.137
L 360.461 155.045
L 363.86 157.841
L 367.465 160.518
L 371.276 163.073
L 375.396 165.563
L 379.722 167.917
L 384.357 170.185
L 389.301 172.358
L 394.657 174.465
L 400.425 176.489
L 406.605 178.417
L 413.197 180.239
L 420.304 181.971
L 428.029 183.622
L 436.372 185.174
L 445.436 186.629
L 455.324 187.987
L 466.036 189.231
L 477.881 190.378
L 490.962 191.418
L 505.588 192.353
L 522.068 193.179
L 541.02 193.899
L 557.5 194.374" style="fill:none;stroke:#af77dd;stroke-linecap:square;stroke-width:2.4;"/>
      </g>
      <g id="line2d_2">
        <path clip-path="url(#pa82c4e93f3)" d="
M 42.5 194.375
L 64.954 193.698
L 84.009 192.906
L 100.592 192
L 115.321 190.978
L 128.608 189.837
L 140.762 188.573
L 151.989 187.184
L 162.495 185.661
L 172.383 184.003
L 181.756 182.21
L 190.82 180.252
L 199.678 178.113
L 208.536 175.746
L 217.6 173.095
L 227.385 169.998
L 239.642 165.868
L 259.521 159.153
L 267.143 156.838
L 273.426 155.155
L 278.988 153.888
L 284.138 152.939
L 288.979 152.267
L 293.717 151.836
L 298.352 151.64
L 302.884 151.669
L 307.519 151.926
L 312.154 152.404
L 316.995 153.128
L 322.145 154.127
L 327.707 155.44
L 333.887 157.135
L 341.2 159.384
L 350.985 162.645
L 376.735 171.329
L 386.52 174.328
L 395.584 176.875
L 404.442 179.136
L 413.403 181.192
L 422.57 183.066
L 432.046 184.774
L 442.037 186.346
L 452.543 187.772
L 463.873 189.082
L 476.027 190.261
L 489.314 191.325
L 504.043 192.277
L 520.523 193.116
L 539.372 193.847
L 557.5 194.375" style="fill:none;stroke:#00bbcc;stroke-linecap:square;stroke-width:2.4;"/>
      </g>
      <g id="line2d_3">
        <path clip-path="url(#pa82c4e93f3)" d="
M 42.5 240.405
L 103.27 240.572
L 132.213 240.861
L 151.577 241.266
L 166.203 241.787
L 177.842 242.416
L 187.524 243.154
L 195.764 243.998
L 202.974 244.955
L 209.36 246.024
L 215.025 247.195
L 220.072 248.458
L 224.707 249.844
L 228.93 251.335
L 232.844 252.953
L 236.449 254.684
L 239.745 256.508
L 242.835 258.464
L 245.719 260.545
L 248.5 262.826
L 251.075 265.219
L 253.547 267.816
L 255.916 270.626
L 258.182 273.66
L 260.345 276.927
L 262.405 280.433
L 264.465 284.393
L 266.422 288.654
L 268.276 293.221
L 270.13 298.403
L 271.881 303.971
L 273.529 309.931
L 275.177 316.728
L 276.722 324.021
L 278.267 332.399
L 279.709 341.415
L 281.151 351.86
L 282.49 363.147
L 283.829 376.352
L 285.065 390.691
L 285.841 401
M 314.754 -1
L 316.068 14.5388
L 317.407 27.911
L 318.849 40.1396
L 320.291 50.5846
L 321.836 60.1982
L 323.484 69.0093
L 325.132 76.6177
L 326.883 83.6317
L 328.634 89.7419
L 330.488 95.4
L 332.342 100.365
L 334.299 104.978
L 336.359 109.25
L 338.419 113.02
L 340.582 116.522
L 342.848 119.765
L 345.217 122.761
L 347.689 125.522
L 350.264 128.062
L 352.942 130.393
L 355.826 132.602
L 358.813 134.612
L 362.006 136.492
L 365.405 138.238
L 369.113 139.887
L 373.13 141.422
L 377.456 142.833
L 382.194 144.138
L 387.344 145.323
L 393.112 146.418
L 399.498 147.4
L 406.708 148.279
L 414.948 149.057
L 424.527 149.732
L 435.96 150.306
L 449.865 150.773
L 467.581 151.136
L 491.889 151.396
L 529.69 151.554
L 557.5 151.595" style="fill:none;stroke:#00bb00;stroke-linecap:square;stroke-width:2.4;"/>
      </g>
      <g id="line2d_4">
        <path clip-path="url(#pa82c4e93f3)" d="
M 42.5 240.345
L 103.373 240.178
L 132.522 239.89
L 152.298 239.482
L 167.336 238.959
L 179.593 238.317
L 189.996 237.557
L 199.163 236.668
L 207.3 235.658
L 214.716 234.516
L 221.514 233.249
L 227.9 231.836
L 233.977 230.264
L 239.745 228.544
L 245.307 226.657
L 250.766 224.573
L 256.225 222.249
L 261.684 219.68
L 267.246 216.812
L 273.014 213.584
L 279.194 209.863
L 286.095 205.439
L 294.85 199.542
L 315.862 185.282
L 322.866 180.869
L 329.046 177.234
L 334.814 174.097
L 340.376 171.322
L 345.835 168.846
L 351.294 166.613
L 356.856 164.582
L 362.521 162.753
L 368.392 161.095
L 374.469 159.613
L 380.855 158.283
L 387.756 157.077
L 395.172 156.011
L 403.309 155.069
L 412.373 154.249
L 422.673 153.546
L 434.621 152.959
L 449.041 152.482
L 467.169 152.115
L 491.786 151.854
L 529.896 151.695
L 557.5 151.655" style="fill:none;stroke:#999900;stroke-linecap:square;stroke-width:2.4;"/>
      </g>
      <g id="line2d_5">
        <path clip-path="url(#pa82c4e93f3)" d="
M 160.259 -1
L 164.143 10.23
L 168.057 20.8612
L 171.971 30.8447
L 175.885 40.2175
L 179.799 49.0142
L 183.713 57.2675
L 187.627 65.0077
L 191.541 72.2636
L 195.455 79.0618
L 199.369 85.4277
L 203.386 91.5362
L 207.403 97.2378
L 211.42 102.555
L 215.437 107.508
L 219.454 112.116
L 223.574 116.503
L 227.694 120.564
L 231.814 124.317
L 235.934 127.775
L 240.157 131.03
L 244.38 134.006
L 248.603 136.714
L 252.929 139.224
L 257.255 141.478
L 261.581 143.485
L 266.01 145.294
L 270.439 146.864
L 274.868 148.2
L 279.4 149.334
L 283.932 150.236
L 288.464 150.911
L 292.996 151.362
L 297.528 151.592
L 302.06 151.602
L 306.592 151.392
L 311.124 150.961
L 315.656 150.306
L 320.188 149.425
L 324.72 148.313
L 329.149 146.998
L 333.578 145.45
L 338.007 143.664
L 342.333 141.68
L 346.659 139.45
L 350.985 136.965
L 355.208 134.282
L 359.431 131.333
L 363.551 128.188
L 367.671 124.765
L 371.791 121.05
L 375.911 117.028
L 379.928 112.795
L 383.945 108.239
L 387.962 103.34
L 391.979 98.0803
L 395.893 92.5889
L 399.807 86.7151
L 403.721 80.4372
L 407.635 73.7319
L 411.549 66.5746
L 415.463 58.9386
L 419.274 51.0169
L 423.085 42.5869
L 426.896 33.6191
L 430.707 24.082
L 434.518 13.9423
L 438.329 3.16429
L 439.741 -1" style="fill:none;stroke:#dd00aa;stroke-linecap:square;stroke-width:2.4;"/>
      </g>
      <g id="line2d_6">
        <path clip-path="url(#pa82c4e93f3)" d="
M 156.122 401
L 160.023 388.659
L 164.04 376.69
L 168.057 365.424
L 172.074 354.818
L 176.091 344.831
L 180.108 335.423
L 184.228 326.339
L 188.348 317.788
L 192.468 309.736
L 196.691 301.966
L 200.914 294.652
L 205.24 287.601
L 209.669 280.809
L 214.098 274.42
L 218.63 268.265
L 223.265 262.342
L 228.003 256.642
L 232.947 251.044
L 237.994 245.664
L 243.247 240.389
L 248.706 235.22
L 254.474 230.064
L 260.654 224.842
L 267.349 219.484
L 274.662 213.92
L 283.211 207.705
L 294.438 199.839
L 318.952 182.746
L 327.501 176.461
L 334.814 170.815
L 341.406 165.449
L 347.483 160.219
L 353.251 154.961
L 358.71 149.682
L 363.86 144.397
L 368.907 138.897
L 373.748 133.292
L 378.486 127.463
L 383.121 121.401
L 387.653 115.1
L 392.082 108.556
L 396.408 101.763
L 400.631 94.7227
L 404.854 87.246
L 408.974 79.5007
L 413.094 71.278
L 417.111 62.7692
L 421.128 53.7415
L 425.145 44.1596
L 429.162 33.9863
L 433.076 23.4672
L 436.99 12.3102
L 440.904 0.473851
L 441.376 -1" style="fill:none;stroke:#0000cc;stroke-linecap:square;stroke-width:2.4;"/>
      </g>
      <g id="matplotlib.axis_1">
        <g id="xtick_1">
          <g id="line2d_7">
            <path clip-path="url(#pa82c4e93f3)" d="
M 42.5 373.5
L 42.5 18.5" style="fill:none;stroke:#000000;stroke-dasharray:1.000000,3.000000;stroke-dashoffset:0.0;stroke-width:0.5;"/>
          </g>
          <g id="line2d_8">
            <defs>
              <path d="
M 0 0
L 0 -4" id="m56cb9a4f4c" style="stroke:#000000;stroke-width:1.25;"/>
            </defs>
            <g>
              <use style="stroke:#000000;stroke-width:1.25;" x="42.5" xlink:href="#m56cb9a4f4c" y="373.5"/>
            </g>
          </g>
          <g id="line2d_9">
            <defs>
              <path d="
M 0 0
L 0 4" id="m01134c304f" style="stroke:#000000;stroke-width:1.25;"/>
            </defs>
            <g>
              <use style="stroke:#000000;stroke-width:1.25;" x="42.5" xlink:href="#m01134c304f" y="18.5"/>
            </g>
          </g>
          <g id="text_1">
            <!-- −4 -->
            <defs>
              <path d="
M 37.7969 64.3125
L 12.8906 25.3906
L 37.7969 25.3906
z 

M 35.2031 72.9062
L 47.6094 72.9062
L 47.6094 25.3906
L 58.0156 25.3906
L 58.0156 17.1875
L 47.6094 17.1875
L 47.6094 0
L 37.7969 0
L 37.7969 17.1875
L 4.89062 17.1875
L 4.89062 26.7031
z 
" id="DejaVuSans-34"/>
              <path d="
M 10.5938 35.5
L 73.1875 35.5
L 73.1875 27.2031
L 10.5938 27.2031
z 
" id="DejaVuSans-2212"/>
            </defs>
            <g transform="translate(32.0025 392.6575)scale(0.16 -0.16)">
              <use xlink:href="#DejaVuSans-2212"/>
              <use x="83.7890625" xlink:href="#DejaVuSans-34"/>
            </g>
          </g>
        </g>
        <g id="xtick_2">
          <g id="line2d_10">
            <path clip-path="url(#pa82c4e93f3)" d="
M 106.875 373.5
L 106.875 18.5" style="fill:none;stroke:#000000;stroke-dasharray:1.000000,3.000000;stroke-dashoffset:0.0;stroke-width:0.5;"/>
          </g>
          <g id="line2d_11">
            <g>
              <use style="stroke:#000000;stroke-width:1.25;" x="106.875" xlink:href="#m56cb9a4f4c" y="373.5"/>
            </g>
          </g>
          <g id="line2d_12">
            <g>
              <use style="stroke:#000000;stroke-width:1.25;" x="106.875" xlink:href="#m01134c304f" y="18.5"/>
            </g>
          </g>
          <g id="text_2">
            <!-- −3 -->
            <defs>
              <path d="
M 40.5781 39.3125
Q 47.6562 37.7969 51.625 33
Q 55.6094 28.2188 55.6094 21.1875
Q 55.6094 10.4062 48.1875 4.48438
Q 40.7656 -1.42188 27.0938 -1.42188
Q 22.5156 -1.42188 17.6562 -0.515625
Q 12.7969 0.390625 7.625 2.20312
L 7.625 11.7188
Q 11.7188 9.32812 16.5938 8.10938
Q 21.4844 6.89062 26.8125 6.89062
Q 36.0781 6.89062 40.9375 10.5469
Q 45.7969 14.2031 45.7969 21.1875
Q 45.7969 27.6406 41.2812 31.2656
Q 36.7656 34.9062 28.7188 34.9062
L 20.2188 34.9062
L 20.2188 43.0156
L 29.1094 43.0156
Q 36.375 43.0156 40.2344 45.9219
Q 44.0938 48.8281 44.0938 54.2969
Q 44.0938 59.9062 40.1094 62.9062
Q 36.1406 65.9219 28.7188 65.9219
Q 24.6562 65.9219 20.0156 65.0312
Q 15.375 64.1562 9.8125 62.3125
L 9.8125 71.0938
Q 15.4375 72.6562 20.3438 73.4375
Q 25.25 74.2188 29.5938 74.2188
Q 40.8281 74.2188 47.3594 69.1094
Q 53.9062 64.0156 53.9062 55.3281
Q 53.9062 49.2656 50.4375 45.0938
Q 46.9688 40.9219 40.5781 39.3125" id="DejaVuSans-33"/>
            </defs>
            <g transform="translate(96.57 392.6575)scale(0.16 -0.16)">
              <use xlink:href="#DejaVuSans-2212"/>
              <use x="83.7890625" xlink:href="#DejaVuSans-33"/>
            </g>
          </g>
        </g>
        <g id="xtick_3">
          <g id="line2d_13">
            <path clip-path="url(#pa82c4e93f3)" d="
M 171.25 373.5
L 171.25 18.5" style="fill:none;stroke:#000000;stroke-dasharray:1.000000,3.000000;stroke-dashoffset:0.0;stroke-width:0.5;"/>
          </g>
          <g id="line2d_14">
            <g>
              <use style="stroke:#000000;stroke-width:1.25;" x="171.25" xlink:href="#m56cb9a4f4c" y="373.5"/>
            </g>
          </g>
          <g id="line2d_15">
            <g>
              <use style="stroke:#000000;stroke-width:1.25;" x="171.25" xlink:href="#m01134c304f" y="18.5"/>
            </g>
          </g>
          <g id="text_3">
            <!-- −2 -->
            <defs>
              <path d="
M 19.1875 8.29688
L 53.6094 8.29688
L 53.6094 0
L 7.32812 0
L 7.32812 8.29688
Q 12.9375 14.1094 22.625 23.8906
Q 32.3281 33.6875 34.8125 36.5312
Q 39.5469 41.8438 41.4219 45.5312
Q 43.3125 49.2188 43.3125 52.7812
Q 43.3125 58.5938 39.2344 62.25
Q 35.1562 65.9219 28.6094 65.9219
Q 23.9688 65.9219 18.8125 64.3125
Q 13.6719 62.7031 7.8125 59.4219
L 7.8125 69.3906
Q 13.7656 71.7812 18.9375 73
Q 24.125 74.2188 28.4219 74.2188
Q 39.75 74.2188 46.4844 68.5469
Q 53.2188 62.8906 53.2188 53.4219
Q 53.2188 48.9219 51.5312 44.8906
Q 49.8594 40.875 45.4062 35.4062
Q 44.1875 33.9844 37.6406 27.2188
Q 31.1094 20.4531 19.1875 8.29688" id="DejaVuSans-32"/>
            </defs>
            <g transform="translate(161.105 392.6575)scale(0.16 -0.16)">
              <use xlink:href="#DejaVuSans-2212"/>
              <use x="83.7890625" xlink:href="#DejaVuSans-32"/>
            </g>
          </g>
        </g>
        <g id="xtick_4">
          <g id="line2d_16">
            <path clip-path="url(#pa82c4e93f3)" d="
M 235.625 373.5
L 235.625 18.5" style="fill:none;stroke:#000000;stroke-dasharray:1.000000,3.000000;stroke-dashoffset:0.0;stroke-width:0.5;"/>
          </g>
          <g id="line2d_17">
            <g>
              <use style="stroke:#000000;stroke-width:1.25;" x="235.625" xlink:href="#m56cb9a4f4c" y="373.5"/>
            </g>
          </g>
          <g id="line2d_18">
            <g>
              <use style="stroke:#000000;stroke-width:1.25;" x="235.625" xlink:href="#m01134c304f" y="18.5"/>
            </g>
          </g>
          <g id="text_4">
            <!-- −1 -->
            <defs>
              <path d="
M 12.4062 8.29688
L 28.5156 8.29688
L 28.5156 63.9219
L 10.9844 60.4062
L 10.9844 69.3906
L 28.4219 72.9062
L 38.2812 72.9062
L 38.2812 8.29688
L 54.3906 8.29688
L 54.3906 0
L 12.4062 0
z 
" id="DejaVuSans-31"/>
            </defs>
            <g transform="translate(225.4175 392.6575)scale(0.16 -0.16)">
              <use xlink:href="#DejaVuSans-2212"/>
              <use x="83.7890625" xlink:href="#DejaVuSans-31"/>
            </g>
          </g>
        </g>
        <g id="xtick_5">
          <g id="line2d_19">
            <path clip-path="url(#pa82c4e93f3)" d="
M 300 373.5
L 300 18.5" style="fill:none;stroke:#000000;stroke-dasharray:3.000000,1.000000;stroke-dashoffset:0.0;stroke-width:0.5;"/>
          </g>
          <g id="line2d_20">
            <g>
              <use style="stroke:#000000;stroke-width:1.25;" x="300.0" xlink:href="#m56cb9a4f4c" y="373.5"/>
            </g>
          </g>
          <g id="line2d_21">
            <g>
              <use style="stroke:#000000;stroke-width:1.25;" x="300.0" xlink:href="#m01134c304f" y="18.5"/>
            </g>
          </g>
          <g id="text_5">
            <!-- 0 -->
            <defs>
              <path d="
M 31.7812 66.4062
Q 24.1719 66.4062 20.3281 58.9062
Q 16.5 51.4219 16.5 36.375
Q 16.5 21.3906 20.3281 13.8906
Q 24.1719 6.39062 31.7812 6.39062
Q 39.4531 6.39062 43.2812 13.8906
Q 47.125 21.3906 47.125 36.375
Q 47.125 51.4219 43.2812 58.9062
Q 39.4531 66.4062 31.7812 66.4062
M 31.7812 74.2188
Q 44.0469 74.2188 50.5156 64.5156
Q 56.9844 54.8281 56.9844 36.375
Q 56.9844 17.9688 50.5156 8.26562
Q 44.0469 -1.42188 31.7812 -1.42188
Q 19.5312 -1.42188 13.0625 8.26562
Q 6.59375 17.9688 6.59375 36.375
Q 6.59375 54.8281 13.0625 64.5156
Q 19.5312 74.2188 31.7812 74.2188" id="DejaVuSans-30"/>
            </defs>
            <g transform="translate(295.96875 392.6575)scale(0.16 -0.16)">
              <use xlink:href="#DejaVuSans-30"/>
            </g>
          </g>
        </g>
        <g id="xtick_6">
          <g id="line2d_22">
            <path clip-path="url(#pa82c4e93f3)" d="
M 364.375 373.5
L 364.375 18.5" style="fill:none;stroke:#000000;stroke-dasharray:1.000000,3.000000;stroke-dashoffset:0.0;stroke-width:0.5;"/>
          </g>
          <g id="line2d_23">
            <g>
              <use style="stroke:#000000;stroke-width:1.25;" x="364.375" xlink:href="#m56cb9a4f4c" y="373.5"/>
            </g>
          </g>
          <g id="line2d_24">
            <g>
              <use style="stroke:#000000;stroke-width:1.25;" x="364.375" xlink:href="#m01134c304f" y="18.5"/>
            </g>
          </g>
          <g id="text_6">
            <!-- 1 -->
            <g transform="translate(360.9025 392.6575)scale(0.16 -0.16)">
              <use xlink:href="#DejaVuSans-31"/>
            </g>
          </g>
        </g>
        <g id="xtick_7">
          <g id="line2d_25">
            <path clip-path="url(#pa82c4e93f3)" d="
M 428.75 373.5
L 428.75 18.5" style="fill:none;stroke:#000000;stroke-dasharray:1.000000,3.000000;stroke-dashoffset:0.0;stroke-width:0.5;"/>
          </g>
          <g id="line2d_26">
            <g>
              <use style="stroke:#000000;stroke-width:1.25;" x="428.75" xlink:href="#m56cb9a4f4c" y="373.5"/>
            </g>
          </g>
          <g id="line2d_27">
            <g>
              <use style="stroke:#000000;stroke-width:1.25;" x="428.75" xlink:href="#m01134c304f" y="18.5"/>
            </g>
          </g>
          <g id="text_7">
            <!-- 2 -->
            <g transform="translate(425.0475 392.6575)scale(0.16 -0.16)">
              <use xlink:href="#DejaVuSans-32"/>
            </g>
          </g>
        </g>
        <g id="xtick_8">
          <g id="line2d_28">
            <path clip-path="url(#pa82c4e93f3)" d="
M 493.125 373.5
L 493.125 18.5" style="fill:none;stroke:#000000;stroke-dasharray:1.000000,3.000000;stroke-dashoffset:0.0;stroke-width:0.5;"/>
          </g>
          <g id="line2d_29">
            <g>
              <use style="stroke:#000000;stroke-width:1.25;" x="493.125" xlink:href="#m56cb9a4f4c" y="373.5"/>
            </g>
          </g>
          <g id="line2d_30">
            <g>
              <use style="stroke:#000000;stroke-width:1.25;" x="493.125" xlink:href="#m01134c304f" y="18.5"/>
            </g>
          </g>
          <g id="text_8">
            <!-- 3 -->
            <g transform="translate(489.28625 392.6575)scale(0.16 -0.16)">
              <use xlink:href="#DejaVuSans-33"/>
            </g>
          </g>
        </g>
        <g id="xtick_9">
          <g id="line2d_31">
            <path clip-path="url(#pa82c4e93f3)" d="
M 557.5 373.5
L 557.5 18.5" style="fill:none;stroke:#000000;stroke-dasharray:1.000000,3.000000;stroke-dashoffset:0.0;stroke-width:0.5;"/>
          </g>
          <g id="line2d_32">
            <g>
              <use style="stroke:#000000;stroke-width:1.25;" x="557.5" xlink:href="#m56cb9a4f4c" y="373.5"/>
            </g>
          </g>
          <g id="line2d_33">
            <g>
              <use style="stroke:#000000;stroke-width:1.25;" x="557.5" xlink:href="#m01134c304f" y="18.5"/>
            </g>
          </g>
          <g id="text_9">
            <!-- 4 -->
            <g transform="translate(553.25 392.6575)scale(0.16 -0.16)">
              <use xlink:href="#DejaVuSans-34"/>
            </g>
          </g>
        </g>
      </g>
      <g id="matplotlib.axis_2">
        <g id="ytick_1">
          <g id="line2d_34">
            <path clip-path="url(#pa82c4e93f3)" d="
M 42.5 373.5
L 557.5 373.5" style="fill:none;stroke:#000000;stroke-dasharray:1.000000,3.000000;stroke-dashoffset:0.0;stroke-width:0.5;"/>
          </g>
          <g id="line2d_35">
            <defs>
              <path d="
M 0 0
L 4 0" id="m86ea02120d" style="stroke:#000000;stroke-width:1.25;"/>
            </defs>
            <g>
              <use style="stroke:#000000;stroke-width:1.25;" x="42.5" xlink:href="#m86ea02120d" y="373.5"/>
            </g>
          </g>
          <g id="line2d_36">
            <defs>
              <path d="
M 0 0
L -4 0" id="m08e0baaaa9" style="stroke:#000000;stroke-width:1.25;"/>
            </defs>
            <g>
              <use style="stroke:#000000;stroke-width:1.25;" x="557.5" xlink:href="#m08e0baaaa9" y="373.5"/>
            </g>
          </g>
          <g id="text_10">
            <!-- −4 -->
            <g transform="translate(14.505 377.915)scale(0.16 -0.16)">
              <use xlink:href="#DejaVuSans-2212"/>
              <use x="83.7890625" xlink:href="#DejaVuSans-34"/>
            </g>
          </g>
        </g>
        <g id="ytick_2">
          <g id="line2d_37">
            <path clip-path="url(#pa82c4e93f3)" d="
M 42.5 329.125
L 557.5 329.125" style="fill:none;stroke:#000000;stroke-dasharray:1.000000,3.000000;stroke-dashoffset:0.0;stroke-width:0.5;"/>
          </g>
          <g id="line2d_38">
            <g>
              <use style="stroke:#000000;stroke-width:1.25;" x="42.5" xlink:href="#m86ea02120d" y="329.125"/>
            </g>
          </g>
          <g id="line2d_39">
            <g>
              <use style="stroke:#000000;stroke-width:1.25;" x="557.5" xlink:href="#m08e0baaaa9" y="329.125"/>
            </g>
          </g>
          <g id="text_11">
            <!-- −3 -->
            <g transform="translate(14.89 333.54)scale(0.16 -0.16)">
              <use xlink:href="#DejaVuSans-2212"/>
              <use x="83.7890625" xlink:href="#DejaVuSans-33"/>
            </g>
          </g>
        </g>
        <g id="ytick_3">
          <g id="line2d_40">
            <path clip-path="url(#pa82c4e93f3)" d="
M 42.5 284.75
L 557.5 284.75" style="fill:none;stroke:#000000;stroke-dasharray:1.000000,3.000000;stroke-dashoffset:0.0;stroke-width:0.5;"/>
          </g>
          <g id="line2d_41">
            <g>
              <use style="stroke:#000000;stroke-width:1.25;" x="42.5" xlink:href="#m86ea02120d" y="284.75"/>
            </g>
          </g>
          <g id="line2d_42">
            <g>
              <use style="stroke:#000000;stroke-width:1.25;" x="557.5" xlink:href="#m08e0baaaa9" y="284.75"/>
            </g>
          </g>
          <g id="text_12">
            <!-- −2 -->
            <g transform="translate(15.21 289.165)scale(0.16 -0.16)">
              <use xlink:href="#DejaVuSans-2212"/>
              <use x="83.7890625" xlink:href="#DejaVuSans-32"/>
            </g>
          </g>
        </g>
        <g id="ytick_4">
          <g id="line2d_43">
            <path clip-path="url(#pa82c4e93f3)" d="
M 42.5 240.375
L 557.5 240.375" style="fill:none;stroke:#000000;stroke-dasharray:1.000000,3.000000;stroke-dashoffset:0.0;stroke-width:0.5;"/>
          </g>
          <g id="line2d_44">
            <g>
              <use style="stroke:#000000;stroke-width:1.25;" x="42.5" xlink:href="#m86ea02120d" y="240.375"/>
            </g>
          </g>
          <g id="line2d_45">
            <g>
              <use style="stroke:#000000;stroke-width:1.25;" x="557.5" xlink:href="#m08e0baaaa9" y="240.375"/>
            </g>
          </g>
          <g id="text_13">
            <!-- −1 -->
            <g transform="translate(15.085 244.79)scale(0.16 -0.16)">
              <use xlink:href="#DejaVuSans-2212"/>
              <use x="83.7890625" xlink:href="#DejaVuSans-31"/>
            </g>
          </g>
        </g>
        <g id="ytick_5">
          <g id="line2d_46">
            <path clip-path="url(#pa82c4e93f3)" d="
M 42.5 196
L 557.5 196" style="fill:none;stroke:#000000;stroke-dasharray:3.000000,1.000000;stroke-dashoffset:0.0;stroke-width:0.5;"/>
          </g>
          <g id="line2d_47">
            <g>
              <use style="stroke:#000000;stroke-width:1.25;" x="42.5" xlink:href="#m86ea02120d" y="196.0"/>
            </g>
          </g>
          <g id="line2d_48">
            <g>
              <use style="stroke:#000000;stroke-width:1.25;" x="557.5" xlink:href="#m08e0baaaa9" y="196.0"/>
            </g>
          </g>
          <g id="text_14">
            <!-- 0 -->
            <g transform="translate(27.4375 200.415)scale(0.16 -0.16)">
              <use xlink:href="#DejaVuSans-30"/>
            </g>
          </g>
        </g>
        <g id="ytick_6">
          <g id="line2d_49">
            <path clip-path="url(#pa82c4e93f3)" d="
M 42.5 151.625
L 557.5 151.625" style="fill:none;stroke:#000000;stroke-dasharray:1.000000,3.000000;stroke-dashoffset:0.0;stroke-width:0.5;"/>
          </g>
          <g id="line2d_50">
            <g>
              <use style="stroke:#000000;stroke-width:1.25;" x="42.5" xlink:href="#m86ea02120d" y="151.625"/>
            </g>
          </g>
          <g id="line2d_51">
            <g>
              <use style="stroke:#000000;stroke-width:1.25;" x="557.5" xlink:href="#m08e0baaaa9" y="151.625"/>
            </g>
          </g>
          <g id="text_15">
            <!-- 1 -->
            <g transform="translate(28.555 156.04)scale(0.16 -0.16)">
              <use xlink:href="#DejaVuSans-31"/>
            </g>
          </g>
        </g>
        <g id="ytick_7">
          <g id="line2d_52">
            <path clip-path="url(#pa82c4e93f3)" d="
M 42.5 107.25
L 557.5 107.25" style="fill:none;stroke:#000000;stroke-dasharray:1.000000,3.000000;stroke-dashoffset:0.0;stroke-width:0.5;"/>
          </g>
          <g id="line2d_53">
            <g>
              <use style="stroke:#000000;stroke-width:1.25;" x="42.5" xlink:href="#m86ea02120d" y="107.25"/>
            </g>
          </g>
          <g id="line2d_54">
            <g>
              <use style="stroke:#000000;stroke-width:1.25;" x="557.5" xlink:href="#m08e0baaaa9" y="107.25"/>
            </g>
          </g>
          <g id="text_16">
            <!-- 2 -->
            <g transform="translate(28.095 111.665)scale(0.16 -0.16)">
              <use xlink:href="#DejaVuSans-32"/>
            </g>
          </g>
        </g>
        <g id="ytick_8">
          <g id="line2d_55">
            <path clip-path="url(#pa82c4e93f3)" d="
M 42.5 62.875
L 557.5 62.875" style="fill:none;stroke:#000000;stroke-dasharray:1.000000,3.000000;stroke-dashoffset:0.0;stroke-width:0.5;"/>
          </g>
          <g id="line2d_56">
            <g>
              <use style="stroke:#000000;stroke-width:1.25;" x="42.5" xlink:href="#m86ea02120d" y="62.875"/>
            </g>
          </g>
          <g id="line2d_57">
            <g>
              <use style="stroke:#000000;stroke-width:1.25;" x="557.5" xlink:href="#m08e0baaaa9" y="62.875"/>
            </g>
          </g>
          <g id="text_17">
            <!-- 3 -->
            <g transform="translate(27.8225 67.29)scale(0.16 -0.16)">
              <use xlink:href="#DejaVuSans-33"/>
            </g>
          </g>
        </g>
        <g id="ytick_9">
          <g id="line2d_58">
            <path clip-path="url(#pa82c4e93f3)" d="
M 42.5 18.5
L 557.5 18.5" style="fill:none;stroke:#000000;stroke-dasharray:1.000000,3.000000;stroke-dashoffset:0.0;stroke-width:0.5;"/>
          </g>
          <g id="line2d_59">
            <g>
              <use style="stroke:#000000;stroke-width:1.25;" x="42.5" xlink:href="#m86ea02120d" y="18.5"/>
            </g>
          </g>
          <g id="line2d_60">
            <g>
              <use style="stroke:#000000;stroke-width:1.25;" x="557.5" xlink:href="#m08e0baaaa9" y="18.5"/>
            </g>
          </g>
          <g id="text_18">
            <!-- 4 -->
            <g transform="translate(27.0 22.915)scale(0.16 -0.16)">
              <use xlink:href="#DejaVuSans-34"/>
            </g>
          </g>
        </g>
      </g>
      <g id="patch_3">
        <path d="
M 42.5 18.5
L 557.5 18.5" style="fill:none;stroke:#000000;stroke-width:1.25;"/>
      </g>
      <g id="patch_4">
        <path d="
M 557.5 373.5
L 557.5 18.5" style="fill:none;stroke:#000000;stroke-width:1.25;"/>
      </g>
      <g id="patch_5">
        <path d="
M 42.5 373.5
L 557.5 373.5" style="fill:none;stroke:#000000;stroke-width:1.25;"/>
      </g>
      <g id="patch_6">
        <path d="
M 42.5 373.5
L 42.5 18.5" style="fill:none;stroke:#000000;stroke-width:1.25;"/>
      </g>
      <g id="legend_1">
        <g id="patch_7">
          <path d="
M 318.322 328.03
L 538.3 328.03
L 538.3 237.724
L 318.322 237.724
L 318.322 328.03
z 
" style="fill:#ffffff;opacity:0.9;stroke:#000000;"/>
        </g>
        <g id="line2d_61">
          <path d="
M 331.762 253.273
L 358.642 253.273" style="fill:none;stroke:#0000cc;stroke-linecap:square;stroke-width:2.4;"/>
        </g>
        <g id="line2d_62"/>
        <g id="text_19">
          <!-- sinh -->
          <defs>
            <path d="
M 54.8906 33.0156
L 54.8906 0
L 45.9062 0
L 45.9062 32.7188
Q 45.9062 40.4844 42.875 44.3281
Q 39.8438 48.1875 33.7969 48.1875
Q 26.5156 48.1875 22.3125 43.5469
Q 18.1094 38.9219 18.1094 30.9062
L 18.1094 0
L 9.07812 0
L 9.07812 54.6875
L 18.1094 54.6875
L 18.1094 46.1875
Q 21.3438 51.125 25.7031 53.5625
Q 30.0781 56 35.7969 56
Q 45.2188 56 50.0469 50.1719
Q 54.8906 44.3438 54.8906 33.0156" id="DejaVuSans-6e"/>
            <path d="
M 54.8906 33.0156
L 54.8906 0
L 45.9062 0
L 45.9062 32.7188
Q 45.9062 40.4844 42.875 44.3281
Q 39.8438 48.1875 33.7969 48.1875
Q 26.5156 48.1875 22.3125 43.5469
Q 18.1094 38.9219 18.1094 30.9062
L 18.1094 0
L 9.07812 0
L 9.07812 75.9844
L 18.1094 75.9844
L 18.1094 46.1875
Q 21.3438 51.125 25.7031 53.5625
Q 30.0781 56 35.7969 56
Q 45.2188 56 50.0469 50.1719
Q 54.8906 44.3438 54.8906 33.0156" id="DejaVuSans-68"/>
            <path d="
M 44.2812 53.0781
L 44.2812 44.5781
Q 40.4844 46.5312 36.375 47.5
Q 32.2812 48.4844 27.875 48.4844
Q 21.1875 48.4844 17.8438 46.4375
Q 14.5 44.3906 14.5 40.2812
Q 14.5 37.1562 16.8906 35.375
Q 19.2812 33.5938 26.5156 31.9844
L 29.5938 31.2969
Q 39.1562 29.25 43.1875 25.5156
Q 47.2188 21.7812 47.2188 15.0938
Q 47.2188 7.46875 41.1875 3.01562
Q 35.1562 -1.42188 24.6094 -1.42188
Q 20.2188 -1.42188 15.4531 -0.5625
Q 10.6875 0.296875 5.42188 2
L 5.42188 11.2812
Q 10.4062 8.6875 15.2344 7.39062
Q 20.0625 6.10938 24.8125 6.10938
Q 31.1562 6.10938 34.5625 8.28125
Q 37.9844 10.4531 37.9844 14.4062
Q 37.9844 18.0625 35.5156 20.0156
Q 33.0625 21.9688 24.7031 23.7812
L 21.5781 24.5156
Q 13.2344 26.2656 9.51562 29.9062
Q 5.8125 33.5469 5.8125 39.8906
Q 5.8125 47.6094 11.2812 51.7969
Q 16.75 56 26.8125 56
Q 31.7812 56 36.1719 55.2656
Q 40.5781 54.5469 44.2812 53.0781" id="DejaVuSans-73"/>
            <path d="
M 9.42188 54.6875
L 18.4062 54.6875
L 18.4062 0
L 9.42188 0
z 

M 9.42188 75.9844
L 18.4062 75.9844
L 18.4062 64.5938
L 9.42188 64.5938
z 
" id="DejaVuSans-69"/>
          </defs>
          <g transform="translate(374.002 259.993)scale(0.192 -0.192)">
            <use xlink:href="#DejaVuSans-73"/>
            <use x="52.099609375" xlink:href="#DejaVuSans-69"/>
            <use x="79.8828125" xlink:href="#DejaVuSans-6e"/>
            <use x="143.26171875" xlink:href="#DejaVuSans-68"/>
          </g>
        </g>
        <g id="line2d_63">
          <path d="
M 331.762 281.455
L 358.642 281.455" style="fill:none;stroke:#dd00aa;stroke-linecap:square;stroke-width:2.4;"/>
        </g>
        <g id="line2d_64"/>
        <g id="text_20">
          <!-- cosh -->
          <defs>
            <path d="
M 30.6094 48.3906
Q 23.3906 48.3906 19.1875 42.75
Q 14.9844 37.1094 14.9844 27.2969
Q 14.9844 17.4844 19.1562 11.8438
Q 23.3438 6.20312 30.6094 6.20312
Q 37.7969 6.20312 41.9844 11.8594
Q 46.1875 17.5312 46.1875 27.2969
Q 46.1875 37.0156 41.9844 42.7031
Q 37.7969 48.3906 30.6094 48.3906
M 30.6094 56
Q 42.3281 56 49.0156 48.375
Q 55.7188 40.7656 55.7188 27.2969
Q 55.7188 13.875 49.0156 6.21875
Q 42.3281 -1.42188 30.6094 -1.42188
Q 18.8438 -1.42188 12.1719 6.21875
Q 5.51562 13.875 5.51562 27.2969
Q 5.51562 40.7656 12.1719 48.375
Q 18.8438 56 30.6094 56" id="DejaVuSans-6f"/>
            <path d="
M 48.7812 52.5938
L 48.7812 44.1875
Q 44.9688 46.2969 41.1406 47.3438
Q 37.3125 48.3906 33.4062 48.3906
Q 24.6562 48.3906 19.8125 42.8438
Q 14.9844 37.3125 14.9844 27.2969
Q 14.9844 17.2812 19.8125 11.7344
Q 24.6562 6.20312 33.4062 6.20312
Q 37.3125 6.20312 41.1406 7.25
Q 44.9688 8.29688 48.7812 10.4062
L 48.7812 2.09375
Q 45.0156 0.34375 40.9844 -0.53125
Q 36.9688 -1.42188 32.4219 -1.42188
Q 20.0625 -1.42188 12.7812 6.34375
Q 5.51562 14.1094 5.51562 27.2969
Q 5.51562 40.6719 12.8594 48.3281
Q 20.2188 56 33.0156 56
Q 37.1562 56 41.1094 55.1406
Q 45.0625 54.2969 48.7812 52.5938" id="DejaVuSans-63"/>
          </defs>
          <g transform="translate(374.002 288.175)scale(0.192 -0.192)">
            <use xlink:href="#DejaVuSans-63"/>
            <use x="54.98046875" xlink:href="#DejaVuSans-6f"/>
            <use x="116.162109375" xlink:href="#DejaVuSans-73"/>
            <use x="168.26171875" xlink:href="#DejaVuSans-68"/>
          </g>
        </g>
        <g id="line2d_65">
          <path d="
M 331.762 309.637
L 358.642 309.637" style="fill:none;stroke:#999900;stroke-linecap:square;stroke-width:2.4;"/>
        </g>
        <g id="line2d_66"/>
        <g id="text_21">
          <!-- tanh -->
          <defs>
            <path d="
M 18.3125 70.2188
L 18.3125 54.6875
L 36.8125 54.6875
L 36.8125 47.7031
L 18.3125 47.7031
L 18.3125 18.0156
Q 18.3125 11.3281 20.1406 9.42188
Q 21.9688 7.51562 27.5938 7.51562
L 36.8125 7.51562
L 36.8125 0
L 27.5938 0
Q 17.1875 0 13.2344 3.875
Q 9.28125 7.76562 9.28125 18.0156
L 9.28125 47.7031
L 2.6875 47.7031
L 2.6875 54.6875
L 9.28125 54.6875
L 9.28125 70.2188
z 
" id="DejaVuSans-74"/>
            <path d="
M 34.2812 27.4844
Q 23.3906 27.4844 19.1875 25
Q 14.9844 22.5156 14.9844 16.5
Q 14.9844 11.7188 18.1406 8.90625
Q 21.2969 6.10938 26.7031 6.10938
Q 34.1875 6.10938 38.7031 11.4062
Q 43.2188 16.7031 43.2188 25.4844
L 43.2188 27.4844
z 

M 52.2031 31.2031
L 52.2031 0
L 43.2188 0
L 43.2188 8.29688
Q 40.1406 3.32812 35.5469 0.953125
Q 30.9531 -1.42188 24.3125 -1.42188
Q 15.9219 -1.42188 10.9531 3.29688
Q 6 8.01562 6 15.9219
Q 6 25.1406 12.1719 29.8281
Q 18.3594 34.5156 30.6094 34.5156
L 43.2188 34.5156
L 43.2188 35.4062
Q 43.2188 41.6094 39.1406 45
Q 35.0625 48.3906 27.6875 48.3906
Q 23 48.3906 18.5469 47.2656
Q 14.1094 46.1406 10.0156 43.8906
L 10.0156 52.2031
Q 14.9375 54.1094 19.5781 55.0469
Q 24.2188 56 28.6094 56
Q 40.4844 56 46.3438 49.8438
Q 52.2031 43.7031 52.2031 31.2031" id="DejaVuSans-61"/>
          </defs>
          <g transform="translate(374.002 316.357)scale(0.192 -0.192)">
            <use xlink:href="#DejaVuSans-74"/>
            <use x="39.208984375" xlink:href="#DejaVuSans-61"/>
            <use x="100.48828125" xlink:href="#DejaVuSans-6e"/>
            <use x="163.8671875" xlink:href="#DejaVuSans-68"/>
          </g>
        </g>
        <g id="line2d_67">
          <path d="
M 446.509 253.273
L 473.389 253.273" style="fill:none;stroke:#00bb00;stroke-linecap:square;stroke-width:2.4;"/>
        </g>
        <g id="line2d_68"/>
        <g id="text_22">
          <!-- coth -->
          <g transform="translate(488.749 259.993)scale(0.192 -0.192)">
            <use xlink:href="#DejaVuSans-63"/>
            <use x="54.98046875" xlink:href="#DejaVuSans-6f"/>
            <use x="116.162109375" xlink:href="#DejaVuSans-74"/>
            <use x="155.37109375" xlink:href="#DejaVuSans-68"/>
          </g>
        </g>
        <g id="line2d_69">
          <path d="
M 446.509 281.455
L 473.389 281.455" style="fill:none;stroke:#00bbcc;stroke-linecap:square;stroke-width:2.4;"/>
        </g>
        <g id="line2d_70"/>
        <g id="text_23">
          <!-- sech -->
          <defs>
            <path d="
M 56.2031 29.5938
L 56.2031 25.2031
L 14.8906 25.2031
Q 15.4844 15.9219 20.4844 11.0625
Q 25.4844 6.20312 34.4219 6.20312
Q 39.5938 6.20312 44.4531 7.46875
Q 49.3125 8.73438 54.1094 11.2812
L 54.1094 2.78125
Q 49.2656 0.734375 44.1875 -0.34375
Q 39.1094 -1.42188 33.8906 -1.42188
Q 20.7969 -1.42188 13.1562 6.1875
Q 5.51562 13.8125 5.51562 26.8125
Q 5.51562 40.2344 12.7656 48.1094
Q 20.0156 56 32.3281 56
Q 43.3594 56 49.7812 48.8906
Q 56.2031 41.7969 56.2031 29.5938
M 47.2188 32.2344
Q 47.125 39.5938 43.0938 43.9844
Q 39.0625 48.3906 32.4219 48.3906
Q 24.9062 48.3906 20.3906 44.1406
Q 15.875 39.8906 15.1875 32.1719
z 
" id="DejaVuSans-65"/>
          </defs>
          <g transform="translate(488.749 288.175)scale(0.192 -0.192)">
            <use xlink:href="#DejaVuSans-73"/>
            <use x="52.099609375" xlink:href="#DejaVuSans-65"/>
            <use x="113.623046875" xlink:href="#DejaVuSans-63"/>
            <use x="168.603515625" xlink:href="#DejaVuSans-68"/>
          </g>
        </g>
        <g id="line2d_71">
          <path d="
M 446.509 309.637
L 473.389 309.637" style="fill:none;stroke:#af77dd;stroke-linecap:square;stroke-width:2.4;"/>
        </g>
        <g id="line2d_72"/>
        <g id="text_24">
          <!-- csch -->
          <g transform="translate(488.749 316.357)scale(0.192 -0.192)">
            <use xlink:href="#DejaVuSans-63"/>
            <use x="54.98046875" xlink:href="#DejaVuSans-73"/>
            <use x="107.080078125" xlink:href="#DejaVuSans-63"/>
            <use x="162.060546875" xlink:href="#DejaVuSans-68"/>
          </g>
        </g>
      </g>
    </g>
  </g>
</svg>
