<?xml version='1.0' encoding='UTF-8'?>
<!DOCTYPE svg PUBLIC "-//W3C//DTD SVG 1.1//EN" "http://www.w3.org/Graphics/SVG/1.1/DTD/svg11.dtd">
<!-- Created with matplotlib (http://matplotlib.org/) -->
<svg xmlns="http://www.w3.org/2000/svg" xmlns:xlink="http://www.w3.org/1999/xlink" height="400px" version="1.1" viewBox="0 0 600 400" width="600px">
  <title>mplwp_inverse_hyperbolic functions.svg</title>
  <desc>http://commons.wikimedia.org/wiki/File:mplwp_inverse_hyperbolic functions.svg
Plot created with mplwp, the Matplotlib extension for Wikipedia plots.</desc>
  <defs>
    <style type="text/css">
*{stroke-linecap:butt;stroke-linejoin:round;}
  </style>
  </defs>
  <defs>
    <clipPath id="pa82c4e93f3">
      <rect height="355.0" width="515.0" x="42.5" y="18.5"/>
    </clipPath>
  </defs>
  <g id="figure_1">
    <g id="patch_1">
      <path d="
M 0 400
L 600 400
L 600 0
L 0 0
z 
" style="fill:#ffffff;"/>
    </g>
    <g id="axes_1">
      <g id="patch_2">
        <path d="
M 42.5 373.5
L 557.5 373.5
L 557.5 18.5
L 42.5 18.5
z 
" style="fill:#ffffff;"/>
      </g>
      <g id="line2d_1">
        <path clip-path="url(#pa82c4e93f3)" d="
M 42.5 210.642
L 64.5317 211.981
L 83.99 213.382
L 101.189 214.838
L 116.567 216.36
L 130.313 217.94
L 142.679 219.581
L 153.851 221.285
L 164.02 223.057
L 173.247 224.888
L 181.721 226.793
L 189.504 228.769
L 196.659 230.813
L 203.25 232.924
L 209.401 235.126
L 215.113 237.406
L 220.449 239.775
L 225.407 242.217
L 230.052 244.748
L 234.446 247.392
L 238.589 250.143
L 242.543 253.037
L 246.247 256.021
L 249.762 259.134
L 253.151 262.434
L 256.352 265.861
L 259.428 269.479
L 262.378 273.297
L 265.203 277.323
L 267.902 281.562
L 270.475 286.022
L 272.923 290.711
L 275.246 295.633
L 277.505 300.95
L 279.639 306.546
L 281.648 312.432
L 283.594 318.834
L 285.414 325.599
L 287.109 332.746
L 288.741 340.618
L 290.247 349.006
L 291.628 357.951
L 292.884 367.495
L 293.574 373.5
M 306.426 18.5
L 307.681 28.9954
L 309.062 38.6954
L 310.569 47.6902
L 312.201 56.0567
L 313.895 63.5992
L 315.716 70.6976
L 317.662 77.3833
L 319.67 83.5044
L 321.804 89.3056
L 324.064 94.8019
L 326.386 99.8777
L 328.834 104.702
L 331.408 109.284
L 334.107 113.632
L 336.932 117.754
L 339.882 121.659
L 342.957 125.356
L 346.158 128.854
L 349.485 132.159
L 353 135.337
L 356.641 138.33
L 360.47 141.193
L 364.55 143.965
L 368.818 146.597
L 373.337 149.124
L 378.17 151.57
L 383.317 153.923
L 388.778 156.173
L 394.679 158.361
L 400.955 160.45
L 407.734 162.47
L 415.078 164.423
L 423.05 166.308
L 431.712 168.125
L 441.127 169.869
L 451.484 171.558
L 462.845 173.181
L 475.399 174.745
L 489.271 176.245
L 504.712 177.688
L 521.973 179.073
L 541.368 180.401
L 557.5 181.358" style="fill:none;stroke:#af77dd;stroke-linecap:square;stroke-width:2.4;"/>
      </g>
      <g id="line2d_2">
        <path clip-path="url(#pa82c4e93f3)" d="
M 364.375 196
L 364.264 192.521
L 363.928 189.006
L 363.36 185.421
L 362.547 181.729
L 361.463 177.859
L 360.087 173.777
L 358.35 169.34
L 356.174 164.405
L 353.401 158.69
L 349.59 151.376
L 334.688 123.261
L 331.095 115.735
L 327.95 108.635
L 325.11 101.677
L 322.524 94.754
L 320.135 87.725
L 317.934 80.554
L 315.89 73.1345
L 314 65.431
L 312.245 57.337
L 310.627 48.817
L 309.136 39.7645
L 307.762 30.0375
L 306.51 19.565
L 306.394 18.5" style="fill:none;stroke:#00bbcc;stroke-linecap:square;stroke-width:2.4;"/>
      </g>
      <g id="line2d_3">
        <defs>
          <path d="
M 0 4.8
C 1.27297 4.8 2.49398 4.29424 3.39411 3.39411
C 4.29424 2.49398 4.8 1.27297 4.8 0
C 4.8 -1.27297 4.29424 -2.49398 3.39411 -3.39411
C 2.49398 -4.29424 1.27297 -4.8 0 -4.8
C -1.27297 -4.8 -2.49398 -4.29424 -3.39411 -3.39411
C -4.29424 -2.49398 -4.8 -1.27297 -4.8 0
C -4.8 1.27297 -4.29424 2.49398 -3.39411 3.39411
C -2.49398 4.29424 -1.27297 4.8 0 4.8
z 
" id="m2723ea1799" style="stroke:#000000;stroke-width:1.8;"/>
        </defs>
        <g clip-path="url(#pa82c4e93f3)">
          <use style="fill:#00bbcc;stroke:#000000;stroke-width:1.8;" x="364.375" xlink:href="#m2723ea1799" y="196.0"/>
        </g>
      </g>
      <g id="line2d_4">
        <path clip-path="url(#pa82c4e93f3)" d="
M 42.5 211.112
L 62.731 212.465
L 80.4449 213.873
L 96.0347 215.334
L 109.818 216.85
L 122.055 218.419
L 132.958 220.043
L 142.705 221.721
L 151.445 223.453
L 159.301 225.24
L 166.38 227.08
L 172.773 228.975
L 178.555 230.923
L 183.795 232.926
L 188.549 234.983
L 192.868 237.094
L 196.796 239.259
L 200.371 241.478
L 203.699 243.806
L 206.723 246.188
L 209.529 248.678
L 212.124 251.276
L 214.515 253.982
L 216.752 256.851
L 218.83 259.882
L 220.747 263.076
L 222.532 266.486
L 224.177 270.113
L 225.699 274.01
L 227.106 278.232
L 228.402 282.833
L 229.585 287.867
L 230.663 293.443
L 231.634 299.668
L 232.493 306.65
L 233.25 314.661
L 233.9 323.972
L 234.444 335.068
L 234.884 348.763
L 235.219 366.463
L 235.305 373.5
M 364.695 18.5
L 365.039 40.0435
L 365.5 55.5245
L 366.075 67.5953
L 366.759 77.4469
L 367.554 85.7828
L 368.458 92.982
L 369.471 99.3151
L 370.603 104.999
L 371.839 110.087
L 373.181 114.688
L 374.64 118.91
L 376.218 122.807
L 377.925 126.434
L 379.747 129.79
L 381.7 132.929
L 383.811 135.907
L 386.078 138.721
L 388.496 141.374
L 391.112 143.918
L 393.933 146.354
L 396.965 148.681
L 400.294 150.955
L 403.858 153.12
L 407.763 155.231
L 412.044 157.288
L 416.741 159.29
L 421.899 161.239
L 427.399 163.08
L 433.425 164.866
L 440.256 166.652
L 447.796 168.384
L 456.134 170.062
L 465.374 171.686
L 475.634 173.256
L 487.055 174.771
L 499.803 176.233
L 514.074 177.64
L 530.099 178.994
L 548.159 180.293
L 557.5 180.888" style="fill:none;stroke:#00bb00;stroke-linecap:square;stroke-width:2.4;"/>
      </g>
      <g id="line2d_5">
        <path clip-path="url(#pa82c4e93f3)" d="
M 235.943 373.5
L 236.288 351.703
L 236.751 335.941
L 237.331 323.516
L 238.028 313.221
L 238.847 304.346
L 239.789 296.536
L 240.849 289.578
L 242.031 283.259
L 243.358 277.366
L 244.816 271.899
L 246.428 266.716
L 248.184 261.817
L 250.097 257.131
L 252.191 252.587
L 254.498 248.114
L 257.023 243.712
L 259.764 239.381
L 262.768 235.05
L 266.092 230.648
L 269.808 226.104
L 273.929 221.418
L 278.666 216.377
L 284.185 210.839
L 291.096 204.236
L 302.702 193.515
L 313.027 183.859
L 319.387 177.611
L 324.569 172.215
L 329.035 167.245
L 332.949 162.559
L 336.453 158.015
L 339.57 153.613
L 342.414 149.211
L 344.993 144.809
L 347.354 140.336
L 349.497 135.792
L 351.458 131.106
L 353.235 126.278
L 354.851 121.237
L 356.322 115.912
L 357.655 110.232
L 358.842 104.197
L 359.91 97.594
L 360.853 90.352
L 361.679 82.258
L 362.39 73.028
L 362.987 62.307
L 363.473 49.456
L 363.851 33.268
L 364.057 18.5" style="fill:none;stroke:#999900;stroke-linecap:square;stroke-width:2.4;"/>
      </g>
      <g id="line2d_6">
        <path clip-path="url(#pa82c4e93f3)" d="
M 364.375 196
L 364.486 192.533
L 364.818 189.065
L 365.372 185.598
L 366.152 182.131
L 367.158 178.664
L 368.395 175.196
L 369.879 171.705
L 371.606 168.213
L 373.582 164.721
L 375.815 161.23
L 378.311 157.738
L 381.101 154.222
L 384.178 150.706
L 387.551 147.19
L 391.235 143.674
L 395.269 140.133
L 399.644 136.593
L 404.377 133.052
L 409.483 129.512
L 414.982 125.971
L 420.892 122.431
L 427.281 118.866
L 434.132 115.301
L 441.47 111.736
L 449.321 108.171
L 457.715 104.606
L 466.682 101.041
L 476.254 97.476
L 486.466 93.9111
L 497.355 90.3462
L 508.961 86.7812
L 521.413 83.1919
L 534.68 79.6025
L 548.812 76.0132
L 557.5 73.9133" style="fill:none;stroke:#dd00aa;stroke-linecap:square;stroke-width:2.4;"/>
      </g>
      <g id="line2d_7">
        <defs>
          <path d="
M 0 4.8
C 1.27297 4.8 2.49398 4.29424 3.39411 3.39411
C 4.29424 2.49398 4.8 1.27297 4.8 0
C 4.8 -1.27297 4.29424 -2.49398 3.39411 -3.39411
C 2.49398 -4.29424 1.27297 -4.8 0 -4.8
C -1.27297 -4.8 -2.49398 -4.29424 -3.39411 -3.39411
C -4.29424 -2.49398 -4.8 -1.27297 -4.8 0
C -4.8 1.27297 -4.29424 2.49398 -3.39411 3.39411
C -2.49398 4.29424 -1.27297 4.8 0 4.8
z 
" id="mffbe16d723" style="stroke:#000000;stroke-width:1.8;"/>
        </defs>
        <g clip-path="url(#pa82c4e93f3)">
          <use style="fill:#dd00aa;stroke:#000000;stroke-width:1.8;" x="364.375" xlink:href="#mffbe16d723" y="196.0"/>
        </g>
      </g>
      <g id="line2d_8">
        <path clip-path="url(#pa82c4e93f3)" d="
M 42.5 319.937
L 58.877 316.173
L 74.327 312.396
L 88.953 308.594
L 102.755 304.778
L 115.836 300.931
L 128.196 297.066
L 139.835 293.197
L 150.959 289.266
L 161.465 285.319
L 171.456 281.33
L 180.932 277.311
L 189.996 273.229
L 198.648 269.091
L 206.991 264.855
L 215.025 260.526
L 222.75 256.112
L 230.269 251.557
L 237.582 246.866
L 244.689 242.045
L 251.796 236.954
L 258.903 231.587
L 266.113 225.861
L 273.632 219.604
L 281.872 212.449
L 291.76 203.553
L 321.424 176.656
L 329.664 169.619
L 337.183 163.487
L 344.393 157.889
L 351.5 152.65
L 358.607 147.686
L 365.817 142.92
L 373.13 138.351
L 380.649 133.914
L 388.477 129.555
L 396.511 125.336
L 404.854 121.205
L 413.609 117.118
L 422.776 113.087
L 432.355 109.12
L 442.449 105.182
L 453.058 101.287
L 464.182 97.4409
L 475.924 93.619
L 488.284 89.8317
L 501.365 86.0586
L 515.167 82.3113
L 529.793 78.5738
L 545.243 74.8581
L 557.5 72.0628" style="fill:none;stroke:#0000cc;stroke-linecap:square;stroke-width:2.4;"/>
      </g>
      <g id="matplotlib.axis_1">
        <g id="xtick_1">
          <g id="line2d_9">
            <path clip-path="url(#pa82c4e93f3)" d="
M 42.5 373.5
L 42.5 18.5" style="fill:none;stroke:#000000;stroke-dasharray:1.000000,3.000000;stroke-dashoffset:0.0;stroke-width:0.5;"/>
          </g>
          <g id="line2d_10">
            <defs>
              <path d="
M 0 0
L 0 -4" id="m56cb9a4f4c" style="stroke:#000000;stroke-width:1.25;"/>
            </defs>
            <g>
              <use style="stroke:#000000;stroke-width:1.25;" x="42.5" xlink:href="#m56cb9a4f4c" y="373.5"/>
            </g>
          </g>
          <g id="line2d_11">
            <defs>
              <path d="
M 0 0
L 0 4" id="m01134c304f" style="stroke:#000000;stroke-width:1.25;"/>
            </defs>
            <g>
              <use style="stroke:#000000;stroke-width:1.25;" x="42.5" xlink:href="#m01134c304f" y="18.5"/>
            </g>
          </g>
          <g id="text_1">
            <!-- −4 -->
            <defs>
              <path d="
M 37.7969 64.3125
L 12.8906 25.3906
L 37.7969 25.3906
z 

M 35.2031 72.9062
L 47.6094 72.9062
L 47.6094 25.3906
L 58.0156 25.3906
L 58.0156 17.1875
L 47.6094 17.1875
L 47.6094 0
L 37.7969 0
L 37.7969 17.1875
L 4.89062 17.1875
L 4.89062 26.7031
z 
" id="DejaVuSans-34"/>
              <path d="
M 10.5938 35.5
L 73.1875 35.5
L 73.1875 27.2031
L 10.5938 27.2031
z 
" id="DejaVuSans-2212"/>
            </defs>
            <g transform="translate(32.0025 392.6575)scale(0.16 -0.16)">
              <use xlink:href="#DejaVuSans-2212"/>
              <use x="83.7890625" xlink:href="#DejaVuSans-34"/>
            </g>
          </g>
        </g>
        <g id="xtick_2">
          <g id="line2d_12">
            <path clip-path="url(#pa82c4e93f3)" d="
M 106.875 373.5
L 106.875 18.5" style="fill:none;stroke:#000000;stroke-dasharray:1.000000,3.000000;stroke-dashoffset:0.0;stroke-width:0.5;"/>
          </g>
          <g id="line2d_13">
            <g>
              <use style="stroke:#000000;stroke-width:1.25;" x="106.875" xlink:href="#m56cb9a4f4c" y="373.5"/>
            </g>
          </g>
          <g id="line2d_14">
            <g>
              <use style="stroke:#000000;stroke-width:1.25;" x="106.875" xlink:href="#m01134c304f" y="18.5"/>
            </g>
          </g>
          <g id="text_2">
            <!-- −3 -->
            <defs>
              <path d="
M 40.5781 39.3125
Q 47.6562 37.7969 51.625 33
Q 55.6094 28.2188 55.6094 21.1875
Q 55.6094 10.4062 48.1875 4.48438
Q 40.7656 -1.42188 27.0938 -1.42188
Q 22.5156 -1.42188 17.6562 -0.515625
Q 12.7969 0.390625 7.625 2.20312
L 7.625 11.7188
Q 11.7188 9.32812 16.5938 8.10938
Q 21.4844 6.89062 26.8125 6.89062
Q 36.0781 6.89062 40.9375 10.5469
Q 45.7969 14.2031 45.7969 21.1875
Q 45.7969 27.6406 41.2812 31.2656
Q 36.7656 34.9062 28.7188 34.9062
L 20.2188 34.9062
L 20.2188 43.0156
L 29.1094 43.0156
Q 36.375 43.0156 40.2344 45.9219
Q 44.0938 48.8281 44.0938 54.2969
Q 44.0938 59.9062 40.1094 62.9062
Q 36.1406 65.9219 28.7188 65.9219
Q 24.6562 65.9219 20.0156 65.0312
Q 15.375 64.1562 9.8125 62.3125
L 9.8125 71.0938
Q 15.4375 72.6562 20.3438 73.4375
Q 25.25 74.2188 29.5938 74.2188
Q 40.8281 74.2188 47.3594 69.1094
Q 53.9062 64.0156 53.9062 55.3281
Q 53.9062 49.2656 50.4375 45.0938
Q 46.9688 40.9219 40.5781 39.3125" id="DejaVuSans-33"/>
            </defs>
            <g transform="translate(96.57 392.6575)scale(0.16 -0.16)">
              <use xlink:href="#DejaVuSans-2212"/>
              <use x="83.7890625" xlink:href="#DejaVuSans-33"/>
            </g>
          </g>
        </g>
        <g id="xtick_3">
          <g id="line2d_15">
            <path clip-path="url(#pa82c4e93f3)" d="
M 171.25 373.5
L 171.25 18.5" style="fill:none;stroke:#000000;stroke-dasharray:1.000000,3.000000;stroke-dashoffset:0.0;stroke-width:0.5;"/>
          </g>
          <g id="line2d_16">
            <g>
              <use style="stroke:#000000;stroke-width:1.25;" x="171.25" xlink:href="#m56cb9a4f4c" y="373.5"/>
            </g>
          </g>
          <g id="line2d_17">
            <g>
              <use style="stroke:#000000;stroke-width:1.25;" x="171.25" xlink:href="#m01134c304f" y="18.5"/>
            </g>
          </g>
          <g id="text_3">
            <!-- −2 -->
            <defs>
              <path d="
M 19.1875 8.29688
L 53.6094 8.29688
L 53.6094 0
L 7.32812 0
L 7.32812 8.29688
Q 12.9375 14.1094 22.625 23.8906
Q 32.3281 33.6875 34.8125 36.5312
Q 39.5469 41.8438 41.4219 45.5312
Q 43.3125 49.2188 43.3125 52.7812
Q 43.3125 58.5938 39.2344 62.25
Q 35.1562 65.9219 28.6094 65.9219
Q 23.9688 65.9219 18.8125 64.3125
Q 13.6719 62.7031 7.8125 59.4219
L 7.8125 69.3906
Q 13.7656 71.7812 18.9375 73
Q 24.125 74.2188 28.4219 74.2188
Q 39.75 74.2188 46.4844 68.5469
Q 53.2188 62.8906 53.2188 53.4219
Q 53.2188 48.9219 51.5312 44.8906
Q 49.8594 40.875 45.4062 35.4062
Q 44.1875 33.9844 37.6406 27.2188
Q 31.1094 20.4531 19.1875 8.29688" id="DejaVuSans-32"/>
            </defs>
            <g transform="translate(161.105 392.6575)scale(0.16 -0.16)">
              <use xlink:href="#DejaVuSans-2212"/>
              <use x="83.7890625" xlink:href="#DejaVuSans-32"/>
            </g>
          </g>
        </g>
        <g id="xtick_4">
          <g id="line2d_18">
            <path clip-path="url(#pa82c4e93f3)" d="
M 235.625 373.5
L 235.625 18.5" style="fill:none;stroke:#000000;stroke-dasharray:1.000000,3.000000;stroke-dashoffset:0.0;stroke-width:0.5;"/>
          </g>
          <g id="line2d_19">
            <g>
              <use style="stroke:#000000;stroke-width:1.25;" x="235.625" xlink:href="#m56cb9a4f4c" y="373.5"/>
            </g>
          </g>
          <g id="line2d_20">
            <g>
              <use style="stroke:#000000;stroke-width:1.25;" x="235.625" xlink:href="#m01134c304f" y="18.5"/>
            </g>
          </g>
          <g id="text_4">
            <!-- −1 -->
            <defs>
              <path d="
M 12.4062 8.29688
L 28.5156 8.29688
L 28.5156 63.9219
L 10.9844 60.4062
L 10.9844 69.3906
L 28.4219 72.9062
L 38.2812 72.9062
L 38.2812 8.29688
L 54.3906 8.29688
L 54.3906 0
L 12.4062 0
z 
" id="DejaVuSans-31"/>
            </defs>
            <g transform="translate(225.4175 392.6575)scale(0.16 -0.16)">
              <use xlink:href="#DejaVuSans-2212"/>
              <use x="83.7890625" xlink:href="#DejaVuSans-31"/>
            </g>
          </g>
        </g>
        <g id="xtick_5">
          <g id="line2d_21">
            <path clip-path="url(#pa82c4e93f3)" d="
M 300 373.5
L 300 18.5" style="fill:none;stroke:#000000;stroke-dasharray:3.000000,1.000000;stroke-dashoffset:0.0;stroke-width:0.5;"/>
          </g>
          <g id="line2d_22">
            <g>
              <use style="stroke:#000000;stroke-width:1.25;" x="300.0" xlink:href="#m56cb9a4f4c" y="373.5"/>
            </g>
          </g>
          <g id="line2d_23">
            <g>
              <use style="stroke:#000000;stroke-width:1.25;" x="300.0" xlink:href="#m01134c304f" y="18.5"/>
            </g>
          </g>
          <g id="text_5">
            <!-- 0 -->
            <defs>
              <path d="
M 31.7812 66.4062
Q 24.1719 66.4062 20.3281 58.9062
Q 16.5 51.4219 16.5 36.375
Q 16.5 21.3906 20.3281 13.8906
Q 24.1719 6.39062 31.7812 6.39062
Q 39.4531 6.39062 43.2812 13.8906
Q 47.125 21.3906 47.125 36.375
Q 47.125 51.4219 43.2812 58.9062
Q 39.4531 66.4062 31.7812 66.4062
M 31.7812 74.2188
Q 44.0469 74.2188 50.5156 64.5156
Q 56.9844 54.8281 56.9844 36.375
Q 56.9844 17.9688 50.5156 8.26562
Q 44.0469 -1.42188 31.7812 -1.42188
Q 19.5312 -1.42188 13.0625 8.26562
Q 6.59375 17.9688 6.59375 36.375
Q 6.59375 54.8281 13.0625 64.5156
Q 19.5312 74.2188 31.7812 74.2188" id="DejaVuSans-30"/>
            </defs>
            <g transform="translate(295.96875 392.6575)scale(0.16 -0.16)">
              <use xlink:href="#DejaVuSans-30"/>
            </g>
          </g>
        </g>
        <g id="xtick_6">
          <g id="line2d_24">
            <path clip-path="url(#pa82c4e93f3)" d="
M 364.375 373.5
L 364.375 18.5" style="fill:none;stroke:#000000;stroke-dasharray:1.000000,3.000000;stroke-dashoffset:0.0;stroke-width:0.5;"/>
          </g>
          <g id="line2d_25">
            <g>
              <use style="stroke:#000000;stroke-width:1.25;" x="364.375" xlink:href="#m56cb9a4f4c" y="373.5"/>
            </g>
          </g>
          <g id="line2d_26">
            <g>
              <use style="stroke:#000000;stroke-width:1.25;" x="364.375" xlink:href="#m01134c304f" y="18.5"/>
            </g>
          </g>
          <g id="text_6">
            <!-- 1 -->
            <g transform="translate(360.9025 392.6575)scale(0.16 -0.16)">
              <use xlink:href="#DejaVuSans-31"/>
            </g>
          </g>
        </g>
        <g id="xtick_7">
          <g id="line2d_27">
            <path clip-path="url(#pa82c4e93f3)" d="
M 428.75 373.5
L 428.75 18.5" style="fill:none;stroke:#000000;stroke-dasharray:1.000000,3.000000;stroke-dashoffset:0.0;stroke-width:0.5;"/>
          </g>
          <g id="line2d_28">
            <g>
              <use style="stroke:#000000;stroke-width:1.25;" x="428.75" xlink:href="#m56cb9a4f4c" y="373.5"/>
            </g>
          </g>
          <g id="line2d_29">
            <g>
              <use style="stroke:#000000;stroke-width:1.25;" x="428.75" xlink:href="#m01134c304f" y="18.5"/>
            </g>
          </g>
          <g id="text_7">
            <!-- 2 -->
            <g transform="translate(425.0475 392.6575)scale(0.16 -0.16)">
              <use xlink:href="#DejaVuSans-32"/>
            </g>
          </g>
        </g>
        <g id="xtick_8">
          <g id="line2d_30">
            <path clip-path="url(#pa82c4e93f3)" d="
M 493.125 373.5
L 493.125 18.5" style="fill:none;stroke:#000000;stroke-dasharray:1.000000,3.000000;stroke-dashoffset:0.0;stroke-width:0.5;"/>
          </g>
          <g id="line2d_31">
            <g>
              <use style="stroke:#000000;stroke-width:1.25;" x="493.125" xlink:href="#m56cb9a4f4c" y="373.5"/>
            </g>
          </g>
          <g id="line2d_32">
            <g>
              <use style="stroke:#000000;stroke-width:1.25;" x="493.125" xlink:href="#m01134c304f" y="18.5"/>
            </g>
          </g>
          <g id="text_8">
            <!-- 3 -->
            <g transform="translate(489.28625 392.6575)scale(0.16 -0.16)">
              <use xlink:href="#DejaVuSans-33"/>
            </g>
          </g>
        </g>
        <g id="xtick_9">
          <g id="line2d_33">
            <path clip-path="url(#pa82c4e93f3)" d="
M 557.5 373.5
L 557.5 18.5" style="fill:none;stroke:#000000;stroke-dasharray:1.000000,3.000000;stroke-dashoffset:0.0;stroke-width:0.5;"/>
          </g>
          <g id="line2d_34">
            <g>
              <use style="stroke:#000000;stroke-width:1.25;" x="557.5" xlink:href="#m56cb9a4f4c" y="373.5"/>
            </g>
          </g>
          <g id="line2d_35">
            <g>
              <use style="stroke:#000000;stroke-width:1.25;" x="557.5" xlink:href="#m01134c304f" y="18.5"/>
            </g>
          </g>
          <g id="text_9">
            <!-- 4 -->
            <g transform="translate(553.25 392.6575)scale(0.16 -0.16)">
              <use xlink:href="#DejaVuSans-34"/>
            </g>
          </g>
        </g>
      </g>
      <g id="matplotlib.axis_2">
        <g id="ytick_1">
          <g id="line2d_36">
            <path clip-path="url(#pa82c4e93f3)" d="
M 42.5 373.5
L 557.5 373.5" style="fill:none;stroke:#000000;stroke-dasharray:1.000000,3.000000;stroke-dashoffset:0.0;stroke-width:0.5;"/>
          </g>
          <g id="line2d_37">
            <defs>
              <path d="
M 0 0
L 4 0" id="m86ea02120d" style="stroke:#000000;stroke-width:1.25;"/>
            </defs>
            <g>
              <use style="stroke:#000000;stroke-width:1.25;" x="42.5" xlink:href="#m86ea02120d" y="373.5"/>
            </g>
          </g>
          <g id="line2d_38">
            <defs>
              <path d="
M 0 0
L -4 0" id="m08e0baaaa9" style="stroke:#000000;stroke-width:1.25;"/>
            </defs>
            <g>
              <use style="stroke:#000000;stroke-width:1.25;" x="557.5" xlink:href="#m08e0baaaa9" y="373.5"/>
            </g>
          </g>
          <g id="text_10">
            <!-- −3 -->
            <g transform="translate(14.89 377.915)scale(0.16 -0.16)">
              <use xlink:href="#DejaVuSans-2212"/>
              <use x="83.7890625" xlink:href="#DejaVuSans-33"/>
            </g>
          </g>
        </g>
        <g id="ytick_2">
          <g id="line2d_39">
            <path clip-path="url(#pa82c4e93f3)" d="
M 42.5 314.333
L 557.5 314.333" style="fill:none;stroke:#000000;stroke-dasharray:1.000000,3.000000;stroke-dashoffset:0.0;stroke-width:0.5;"/>
          </g>
          <g id="line2d_40">
            <g>
              <use style="stroke:#000000;stroke-width:1.25;" x="42.5" xlink:href="#m86ea02120d" y="314.333333333"/>
            </g>
          </g>
          <g id="line2d_41">
            <g>
              <use style="stroke:#000000;stroke-width:1.25;" x="557.5" xlink:href="#m08e0baaaa9" y="314.333333333"/>
            </g>
          </g>
          <g id="text_11">
            <!-- −2 -->
            <g transform="translate(15.21 318.748333333)scale(0.16 -0.16)">
              <use xlink:href="#DejaVuSans-2212"/>
              <use x="83.7890625" xlink:href="#DejaVuSans-32"/>
            </g>
          </g>
        </g>
        <g id="ytick_3">
          <g id="line2d_42">
            <path clip-path="url(#pa82c4e93f3)" d="
M 42.5 255.167
L 557.5 255.167" style="fill:none;stroke:#000000;stroke-dasharray:1.000000,3.000000;stroke-dashoffset:0.0;stroke-width:0.5;"/>
          </g>
          <g id="line2d_43">
            <g>
              <use style="stroke:#000000;stroke-width:1.25;" x="42.5" xlink:href="#m86ea02120d" y="255.166666667"/>
            </g>
          </g>
          <g id="line2d_44">
            <g>
              <use style="stroke:#000000;stroke-width:1.25;" x="557.5" xlink:href="#m08e0baaaa9" y="255.166666667"/>
            </g>
          </g>
          <g id="text_12">
            <!-- −1 -->
            <g transform="translate(15.085 259.581666667)scale(0.16 -0.16)">
              <use xlink:href="#DejaVuSans-2212"/>
              <use x="83.7890625" xlink:href="#DejaVuSans-31"/>
            </g>
          </g>
        </g>
        <g id="ytick_4">
          <g id="line2d_45">
            <path clip-path="url(#pa82c4e93f3)" d="
M 42.5 196
L 557.5 196" style="fill:none;stroke:#000000;stroke-dasharray:3.000000,1.000000;stroke-dashoffset:0.0;stroke-width:0.5;"/>
          </g>
          <g id="line2d_46">
            <g>
              <use style="stroke:#000000;stroke-width:1.25;" x="42.5" xlink:href="#m86ea02120d" y="196.0"/>
            </g>
          </g>
          <g id="line2d_47">
            <g>
              <use style="stroke:#000000;stroke-width:1.25;" x="557.5" xlink:href="#m08e0baaaa9" y="196.0"/>
            </g>
          </g>
          <g id="text_13">
            <!-- 0 -->
            <g transform="translate(27.4375 200.415)scale(0.16 -0.16)">
              <use xlink:href="#DejaVuSans-30"/>
            </g>
          </g>
        </g>
        <g id="ytick_5">
          <g id="line2d_48">
            <path clip-path="url(#pa82c4e93f3)" d="
M 42.5 136.833
L 557.5 136.833" style="fill:none;stroke:#000000;stroke-dasharray:1.000000,3.000000;stroke-dashoffset:0.0;stroke-width:0.5;"/>
          </g>
          <g id="line2d_49">
            <g>
              <use style="stroke:#000000;stroke-width:1.25;" x="42.5" xlink:href="#m86ea02120d" y="136.833333333"/>
            </g>
          </g>
          <g id="line2d_50">
            <g>
              <use style="stroke:#000000;stroke-width:1.25;" x="557.5" xlink:href="#m08e0baaaa9" y="136.833333333"/>
            </g>
          </g>
          <g id="text_14">
            <!-- 1 -->
            <g transform="translate(28.555 141.248333333)scale(0.16 -0.16)">
              <use xlink:href="#DejaVuSans-31"/>
            </g>
          </g>
        </g>
        <g id="ytick_6">
          <g id="line2d_51">
            <path clip-path="url(#pa82c4e93f3)" d="
M 42.5 77.6667
L 557.5 77.6667" style="fill:none;stroke:#000000;stroke-dasharray:1.000000,3.000000;stroke-dashoffset:0.0;stroke-width:0.5;"/>
          </g>
          <g id="line2d_52">
            <g>
              <use style="stroke:#000000;stroke-width:1.25;" x="42.5" xlink:href="#m86ea02120d" y="77.6666666667"/>
            </g>
          </g>
          <g id="line2d_53">
            <g>
              <use style="stroke:#000000;stroke-width:1.25;" x="557.5" xlink:href="#m08e0baaaa9" y="77.6666666667"/>
            </g>
          </g>
          <g id="text_15">
            <!-- 2 -->
            <g transform="translate(28.095 82.0816666667)scale(0.16 -0.16)">
              <use xlink:href="#DejaVuSans-32"/>
            </g>
          </g>
        </g>
        <g id="ytick_7">
          <g id="line2d_54">
            <path clip-path="url(#pa82c4e93f3)" d="
M 42.5 18.5
L 557.5 18.5" style="fill:none;stroke:#000000;stroke-dasharray:1.000000,3.000000;stroke-dashoffset:0.0;stroke-width:0.5;"/>
          </g>
          <g id="line2d_55">
            <g>
              <use style="stroke:#000000;stroke-width:1.25;" x="42.5" xlink:href="#m86ea02120d" y="18.5"/>
            </g>
          </g>
          <g id="line2d_56">
            <g>
              <use style="stroke:#000000;stroke-width:1.25;" x="557.5" xlink:href="#m08e0baaaa9" y="18.5"/>
            </g>
          </g>
          <g id="text_16">
            <!-- 3 -->
            <g transform="translate(27.8225 22.915)scale(0.16 -0.16)">
              <use xlink:href="#DejaVuSans-33"/>
            </g>
          </g>
        </g>
      </g>
      <g id="patch_3">
        <path d="
M 42.5 18.5
L 557.5 18.5" style="fill:none;stroke:#000000;stroke-width:1.25;"/>
      </g>
      <g id="patch_4">
        <path d="
M 557.5 373.5
L 557.5 18.5" style="fill:none;stroke:#000000;stroke-width:1.25;"/>
      </g>
      <g id="patch_5">
        <path d="
M 42.5 373.5
L 557.5 373.5" style="fill:none;stroke:#000000;stroke-width:1.25;"/>
      </g>
      <g id="patch_6">
        <path d="
M 42.5 373.5
L 42.5 18.5" style="fill:none;stroke:#000000;stroke-width:1.25;"/>
      </g>
      <g id="legend_1">
        <g id="patch_7">
          <path d="
M 57.86 154.696
L 305 154.696
L 305 64.39
L 57.86 64.39
L 57.86 154.696
z 
" style="fill:#ffffff;opacity:0.9;stroke:#000000;"/>
        </g>
        <g id="line2d_57">
          <path d="
M 71.3 79.939
L 98.18 79.939" style="fill:none;stroke:#0000cc;stroke-linecap:square;stroke-width:2.4;"/>
        </g>
        <g id="line2d_58"/>
        <g id="text_17">
          <!-- arsinh -->
          <defs>
            <path d="
M 54.8906 33.0156
L 54.8906 0
L 45.9062 0
L 45.9062 32.7188
Q 45.9062 40.4844 42.875 44.3281
Q 39.8438 48.1875 33.7969 48.1875
Q 26.5156 48.1875 22.3125 43.5469
Q 18.1094 38.9219 18.1094 30.9062
L 18.1094 0
L 9.07812 0
L 9.07812 54.6875
L 18.1094 54.6875
L 18.1094 46.1875
Q 21.3438 51.125 25.7031 53.5625
Q 30.0781 56 35.7969 56
Q 45.2188 56 50.0469 50.1719
Q 54.8906 44.3438 54.8906 33.0156" id="DejaVuSans-6e"/>
            <path d="
M 54.8906 33.0156
L 54.8906 0
L 45.9062 0
L 45.9062 32.7188
Q 45.9062 40.4844 42.875 44.3281
Q 39.8438 48.1875 33.7969 48.1875
Q 26.5156 48.1875 22.3125 43.5469
Q 18.1094 38.9219 18.1094 30.9062
L 18.1094 0
L 9.07812 0
L 9.07812 75.9844
L 18.1094 75.9844
L 18.1094 46.1875
Q 21.3438 51.125 25.7031 53.5625
Q 30.0781 56 35.7969 56
Q 45.2188 56 50.0469 50.1719
Q 54.8906 44.3438 54.8906 33.0156" id="DejaVuSans-68"/>
            <path d="
M 9.42188 54.6875
L 18.4062 54.6875
L 18.4062 0
L 9.42188 0
z 

M 9.42188 75.9844
L 18.4062 75.9844
L 18.4062 64.5938
L 9.42188 64.5938
z 
" id="DejaVuSans-69"/>
            <path d="
M 34.2812 27.4844
Q 23.3906 27.4844 19.1875 25
Q 14.9844 22.5156 14.9844 16.5
Q 14.9844 11.7188 18.1406 8.90625
Q 21.2969 6.10938 26.7031 6.10938
Q 34.1875 6.10938 38.7031 11.4062
Q 43.2188 16.7031 43.2188 25.4844
L 43.2188 27.4844
z 

M 52.2031 31.2031
L 52.2031 0
L 43.2188 0
L 43.2188 8.29688
Q 40.1406 3.32812 35.5469 0.953125
Q 30.9531 -1.42188 24.3125 -1.42188
Q 15.9219 -1.42188 10.9531 3.29688
Q 6 8.01562 6 15.9219
Q 6 25.1406 12.1719 29.8281
Q 18.3594 34.5156 30.6094 34.5156
L 43.2188 34.5156
L 43.2188 35.4062
Q 43.2188 41.6094 39.1406 45
Q 35.0625 48.3906 27.6875 48.3906
Q 23 48.3906 18.5469 47.2656
Q 14.1094 46.1406 10.0156 43.8906
L 10.0156 52.2031
Q 14.9375 54.1094 19.5781 55.0469
Q 24.2188 56 28.6094 56
Q 40.4844 56 46.3438 49.8438
Q 52.2031 43.7031 52.2031 31.2031" id="DejaVuSans-61"/>
            <path d="
M 44.2812 53.0781
L 44.2812 44.5781
Q 40.4844 46.5312 36.375 47.5
Q 32.2812 48.4844 27.875 48.4844
Q 21.1875 48.4844 17.8438 46.4375
Q 14.5 44.3906 14.5 40.2812
Q 14.5 37.1562 16.8906 35.375
Q 19.2812 33.5938 26.5156 31.9844
L 29.5938 31.2969
Q 39.1562 29.25 43.1875 25.5156
Q 47.2188 21.7812 47.2188 15.0938
Q 47.2188 7.46875 41.1875 3.01562
Q 35.1562 -1.42188 24.6094 -1.42188
Q 20.2188 -1.42188 15.4531 -0.5625
Q 10.6875 0.296875 5.42188 2
L 5.42188 11.2812
Q 10.4062 8.6875 15.2344 7.39062
Q 20.0625 6.10938 24.8125 6.10938
Q 31.1562 6.10938 34.5625 8.28125
Q 37.9844 10.4531 37.9844 14.4062
Q 37.9844 18.0625 35.5156 20.0156
Q 33.0625 21.9688 24.7031 23.7812
L 21.5781 24.5156
Q 13.2344 26.2656 9.51562 29.9062
Q 5.8125 33.5469 5.8125 39.8906
Q 5.8125 47.6094 11.2812 51.7969
Q 16.75 56 26.8125 56
Q 31.7812 56 36.1719 55.2656
Q 40.5781 54.5469 44.2812 53.0781" id="DejaVuSans-73"/>
            <path d="
M 41.1094 46.2969
Q 39.5938 47.1719 37.8125 47.5781
Q 36.0312 48 33.8906 48
Q 26.2656 48 22.1875 43.0469
Q 18.1094 38.0938 18.1094 28.8125
L 18.1094 0
L 9.07812 0
L 9.07812 54.6875
L 18.1094 54.6875
L 18.1094 46.1875
Q 20.9531 51.1719 25.4844 53.5781
Q 30.0312 56 36.5312 56
Q 37.4531 56 38.5781 55.875
Q 39.7031 55.7656 41.0625 55.5156
z 
" id="DejaVuSans-72"/>
          </defs>
          <g transform="translate(109.7 86.659)scale(0.192 -0.192)">
            <use xlink:href="#DejaVuSans-61"/>
            <use x="61.279296875" xlink:href="#DejaVuSans-72"/>
            <use x="102.392578125" xlink:href="#DejaVuSans-73"/>
            <use x="154.4921875" xlink:href="#DejaVuSans-69"/>
            <use x="182.275390625" xlink:href="#DejaVuSans-6e"/>
            <use x="245.654296875" xlink:href="#DejaVuSans-68"/>
          </g>
        </g>
        <g id="line2d_59">
          <path d="
M 71.3 108.121
L 98.18 108.121" style="fill:none;stroke:#dd00aa;stroke-linecap:square;stroke-width:2.4;"/>
        </g>
        <g id="line2d_60"/>
        <g id="text_18">
          <!-- arcosh -->
          <defs>
            <path d="
M 30.6094 48.3906
Q 23.3906 48.3906 19.1875 42.75
Q 14.9844 37.1094 14.9844 27.2969
Q 14.9844 17.4844 19.1562 11.8438
Q 23.3438 6.20312 30.6094 6.20312
Q 37.7969 6.20312 41.9844 11.8594
Q 46.1875 17.5312 46.1875 27.2969
Q 46.1875 37.0156 41.9844 42.7031
Q 37.7969 48.3906 30.6094 48.3906
M 30.6094 56
Q 42.3281 56 49.0156 48.375
Q 55.7188 40.7656 55.7188 27.2969
Q 55.7188 13.875 49.0156 6.21875
Q 42.3281 -1.42188 30.6094 -1.42188
Q 18.8438 -1.42188 12.1719 6.21875
Q 5.51562 13.875 5.51562 27.2969
Q 5.51562 40.7656 12.1719 48.375
Q 18.8438 56 30.6094 56" id="DejaVuSans-6f"/>
            <path d="
M 48.7812 52.5938
L 48.7812 44.1875
Q 44.9688 46.2969 41.1406 47.3438
Q 37.3125 48.3906 33.4062 48.3906
Q 24.6562 48.3906 19.8125 42.8438
Q 14.9844 37.3125 14.9844 27.2969
Q 14.9844 17.2812 19.8125 11.7344
Q 24.6562 6.20312 33.4062 6.20312
Q 37.3125 6.20312 41.1406 7.25
Q 44.9688 8.29688 48.7812 10.4062
L 48.7812 2.09375
Q 45.0156 0.34375 40.9844 -0.53125
Q 36.9688 -1.42188 32.4219 -1.42188
Q 20.0625 -1.42188 12.7812 6.34375
Q 5.51562 14.1094 5.51562 27.2969
Q 5.51562 40.6719 12.8594 48.3281
Q 20.2188 56 33.0156 56
Q 37.1562 56 41.1094 55.1406
Q 45.0625 54.2969 48.7812 52.5938" id="DejaVuSans-63"/>
          </defs>
          <g transform="translate(109.7 114.841)scale(0.192 -0.192)">
            <use xlink:href="#DejaVuSans-61"/>
            <use x="61.279296875" xlink:href="#DejaVuSans-72"/>
            <use x="100.142578125" xlink:href="#DejaVuSans-63"/>
            <use x="155.123046875" xlink:href="#DejaVuSans-6f"/>
            <use x="216.3046875" xlink:href="#DejaVuSans-73"/>
            <use x="268.404296875" xlink:href="#DejaVuSans-68"/>
          </g>
        </g>
        <g id="line2d_61">
          <path d="
M 71.3 136.303
L 98.18 136.303" style="fill:none;stroke:#999900;stroke-linecap:square;stroke-width:2.4;"/>
        </g>
        <g id="line2d_62"/>
        <g id="text_19">
          <!-- artanh -->
          <defs>
            <path d="
M 18.3125 70.2188
L 18.3125 54.6875
L 36.8125 54.6875
L 36.8125 47.7031
L 18.3125 47.7031
L 18.3125 18.0156
Q 18.3125 11.3281 20.1406 9.42188
Q 21.9688 7.51562 27.5938 7.51562
L 36.8125 7.51562
L 36.8125 0
L 27.5938 0
Q 17.1875 0 13.2344 3.875
Q 9.28125 7.76562 9.28125 18.0156
L 9.28125 47.7031
L 2.6875 47.7031
L 2.6875 54.6875
L 9.28125 54.6875
L 9.28125 70.2188
z 
" id="DejaVuSans-74"/>
          </defs>
          <g transform="translate(109.7 143.023)scale(0.192 -0.192)">
            <use xlink:href="#DejaVuSans-61"/>
            <use x="61.279296875" xlink:href="#DejaVuSans-72"/>
            <use x="102.392578125" xlink:href="#DejaVuSans-74"/>
            <use x="141.6015625" xlink:href="#DejaVuSans-61"/>
            <use x="202.880859375" xlink:href="#DejaVuSans-6e"/>
            <use x="266.259765625" xlink:href="#DejaVuSans-68"/>
          </g>
        </g>
        <g id="line2d_63">
          <path d="
M 197.501 79.939
L 224.381 79.939" style="fill:none;stroke:#00bb00;stroke-linecap:square;stroke-width:2.4;"/>
        </g>
        <g id="line2d_64"/>
        <g id="text_20">
          <!-- arcoth -->
          <g transform="translate(235.901 86.659)scale(0.192 -0.192)">
            <use xlink:href="#DejaVuSans-61"/>
            <use x="61.279296875" xlink:href="#DejaVuSans-72"/>
            <use x="100.142578125" xlink:href="#DejaVuSans-63"/>
            <use x="155.123046875" xlink:href="#DejaVuSans-6f"/>
            <use x="216.3046875" xlink:href="#DejaVuSans-74"/>
            <use x="255.513671875" xlink:href="#DejaVuSans-68"/>
          </g>
        </g>
        <g id="line2d_65">
          <path d="
M 197.501 108.121
L 224.381 108.121" style="fill:none;stroke:#00bbcc;stroke-linecap:square;stroke-width:2.4;"/>
        </g>
        <g id="line2d_66"/>
        <g id="text_21">
          <!-- arsech -->
          <defs>
            <path d="
M 56.2031 29.5938
L 56.2031 25.2031
L 14.8906 25.2031
Q 15.4844 15.9219 20.4844 11.0625
Q 25.4844 6.20312 34.4219 6.20312
Q 39.5938 6.20312 44.4531 7.46875
Q 49.3125 8.73438 54.1094 11.2812
L 54.1094 2.78125
Q 49.2656 0.734375 44.1875 -0.34375
Q 39.1094 -1.42188 33.8906 -1.42188
Q 20.7969 -1.42188 13.1562 6.1875
Q 5.51562 13.8125 5.51562 26.8125
Q 5.51562 40.2344 12.7656 48.1094
Q 20.0156 56 32.3281 56
Q 43.3594 56 49.7812 48.8906
Q 56.2031 41.7969 56.2031 29.5938
M 47.2188 32.2344
Q 47.125 39.5938 43.0938 43.9844
Q 39.0625 48.3906 32.4219 48.3906
Q 24.9062 48.3906 20.3906 44.1406
Q 15.875 39.8906 15.1875 32.1719
z 
" id="DejaVuSans-65"/>
          </defs>
          <g transform="translate(235.901 114.841)scale(0.192 -0.192)">
            <use xlink:href="#DejaVuSans-61"/>
            <use x="61.279296875" xlink:href="#DejaVuSans-72"/>
            <use x="102.392578125" xlink:href="#DejaVuSans-73"/>
            <use x="154.4921875" xlink:href="#DejaVuSans-65"/>
            <use x="216.015625" xlink:href="#DejaVuSans-63"/>
            <use x="270.99609375" xlink:href="#DejaVuSans-68"/>
          </g>
        </g>
        <g id="line2d_67">
          <path d="
M 197.501 136.303
L 224.381 136.303" style="fill:none;stroke:#af77dd;stroke-linecap:square;stroke-width:2.4;"/>
        </g>
        <g id="line2d_68"/>
        <g id="text_22">
          <!-- arcsch -->
          <g transform="translate(235.901 143.023)scale(0.192 -0.192)">
            <use xlink:href="#DejaVuSans-61"/>
            <use x="61.279296875" xlink:href="#DejaVuSans-72"/>
            <use x="100.142578125" xlink:href="#DejaVuSans-63"/>
            <use x="155.123046875" xlink:href="#DejaVuSans-73"/>
            <use x="207.22265625" xlink:href="#DejaVuSans-63"/>
            <use x="262.203125" xlink:href="#DejaVuSans-68"/>
          </g>
        </g>
      </g>
    </g>
  </g>
</svg>
